<?xml version="1.0" standalone="no"?>
<!DOCTYPE svg PUBLIC "-//W3C//DTD SVG 20010904//EN"
 "http://www.w3.org/TR/2001/REC-SVG-20010904/DTD/svg10.dtd">
<svg version="1.0" xmlns="http://www.w3.org/2000/svg"
 width="432.000000pt" height="432.000000pt" viewBox="0 0 432.000000 432.000000"
 preserveAspectRatio="xMidYMid meet">
<metadata>
Created by potrace 1.14, written by Peter Selinger 2001-2017
</metadata>
<g transform="translate(0.000000,432.000000) scale(0.100000,-0.100000)"
fill="#000000" stroke="none">
<path d="M2209 4066 c-4 -4 -33 -9 -65 -11 -33 -2 -79 -7 -104 -10 -25 -3 -55
-7 -67 -8 -13 -1 -23 -5 -23 -8 0 -4 -20 -10 -45 -13 -24 -4 -47 -11 -50 -17
-4 -5 -10 -7 -15 -4 -5 3 -11 1 -15 -5 -4 -6 -10 -8 -15 -5 -4 3 -21 -2 -36
-10 -16 -8 -35 -15 -41 -15 -7 0 -13 -5 -13 -11 0 -5 -4 -7 -10 -4 -5 3 -10 2
-10 -3 0 -6 -10 -8 -22 -5 -13 3 -20 3 -16 -2 4 -4 -12 -17 -35 -29 -72 -38
-113 -63 -160 -99 -30 -23 -54 -33 -71 -32 -14 2 -26 -1 -26 -6 0 -5 -6 -9
-12 -9 -14 -1 -48 -61 -48 -85 0 -23 -119 -155 -140 -155 -13 0 -53 22 -61 33
-3 5 -9 9 -12 8 -4 0 -22 6 -41 14 -20 8 -40 15 -46 15 -5 0 -10 4 -10 8 0 14
-104 6 -143 -11 -21 -9 -56 -30 -77 -47 -43 -34 -146 -158 -143 -171 2 -5 -1
-9 -6 -9 -27 0 -58 -152 -37 -185 28 -46 19 -77 -40 -130 -101 -92 -174 -168
-174 -181 0 -8 -3 -14 -7 -15 -10 -1 -32 -6 -61 -15 -15 -4 -22 -2 -22 7 0 10
-3 10 -12 1 -7 -7 -19 -12 -28 -12 -21 0 -62 -38 -55 -51 4 -5 1 -9 -4 -9 -6
0 -11 -13 -11 -30 0 -16 5 -30 11 -30 5 0 8 -4 5 -8 -6 -10 130 -152 147 -152
7 0 25 -11 41 -25 22 -19 26 -28 17 -38 -6 -8 -9 -16 -6 -19 12 -12 -27 -80
-53 -91 -37 -16 -72 -48 -72 -64 0 -7 -3 -13 -7 -13 -12 0 -6 -90 9 -124 7
-17 23 -39 35 -49 30 -24 29 -41 -2 -55 -14 -6 -24 -15 -23 -19 2 -5 0 -9 -5
-10 -13 -4 -57 -52 -57 -62 0 -6 -8 -15 -17 -20 -10 -6 -14 -11 -9 -11 5 0 3
-7 -4 -15 -7 -8 -10 -24 -7 -35 3 -11 1 -23 -4 -26 -12 -7 -12 -44 0 -44 5 0
7 -18 4 -40 -4 -25 -2 -40 5 -40 6 0 9 -8 7 -17 -1 -10 1 -22 5 -28 3 -5 13
-26 20 -45 28 -71 53 -80 222 -80 l130 0 -4 -90 c-2 -71 -7 -92 -21 -102 -10
-8 -21 -35 -26 -68 -5 -30 -13 -56 -18 -57 -18 -6 -6 -102 16 -130 12 -14 21
-22 21 -18 0 4 7 2 15 -5 8 -7 15 -10 15 -7 0 3 13 1 29 -4 17 -6 48 -34 70
-63 40 -51 139 -150 192 -191 15 -11 36 -38 47 -61 31 -61 83 -98 113 -81 19
12 89 0 89 -15 0 -5 7 -7 16 -4 9 3 21 3 27 -1 7 -4 17 -9 22 -10 65 -17 106
-24 137 -23 20 0 39 -3 42 -8 3 -5 25 -8 50 -7 26 1 46 -2 46 -6 0 -4 11 -6
24 -5 18 2 40 -12 85 -55 33 -33 63 -59 66 -59 3 0 22 -11 43 -24 20 -12 41
-23 45 -23 20 -1 77 -39 77 -51 0 -8 6 -12 15 -8 8 3 15 1 15 -3 0 -5 18 -12
40 -16 22 -4 40 -10 40 -15 0 -4 9 -6 20 -3 12 3 20 0 20 -7 0 -6 10 -11 23
-10 12 1 24 1 27 0 12 -4 49 -10 100 -16 30 -3 62 -8 70 -11 18 -7 58 -11 165
-19 156 -10 180 -11 190 -3 6 4 29 6 53 4 23 -2 42 1 42 6 0 6 15 -1 33 -15
19 -15 41 -26 50 -26 10 0 17 -4 17 -10 0 -5 14 -10 30 -10 17 0 30 4 30 9 0
5 10 11 23 15 33 8 83 58 97 98 16 45 26 56 80 97 25 19 62 55 83 82 47 57
116 95 191 104 31 4 56 11 56 15 0 5 9 6 20 3 11 -3 20 -1 20 5 0 6 8 9 18 8
9 -2 19 0 22 3 3 3 22 14 43 23 20 10 37 25 37 34 0 11 6 14 23 8 38 -13 91
-10 124 7 33 17 70 49 56 49 -4 0 -3 4 3 8 19 12 42 94 38 137 -2 22 -8 69
-14 105 -6 36 -11 83 -13 105 -3 44 16 95 36 95 7 0 19 9 27 20 8 11 18 20 23
20 14 0 57 37 50 43 -3 4 17 5 46 4 28 -1 51 0 51 3 0 3 19 11 43 18 28 9 57
30 87 62 60 65 72 80 64 80 -3 0 -1 7 6 15 7 8 9 15 5 15 -4 0 -2 7 5 15 14
17 18 131 7 180 -4 17 -8 36 -9 43 -1 6 -5 12 -9 12 -4 0 -13 15 -19 34 -6 19
-18 40 -26 47 -8 7 -14 22 -13 33 1 12 -4 35 -10 51 -7 17 -14 35 -15 40 -3
12 -14 40 -27 73 -5 13 -9 33 -9 46 0 12 -3 26 -7 30 -4 3 -7 65 -7 136 -1 99
2 130 12 130 7 0 15 7 18 15 4 8 12 15 19 15 7 0 18 7 25 15 7 8 15 13 19 10
4 -2 15 16 24 41 9 24 12 44 7 44 -6 0 -10 7 -10 17 0 20 -56 72 -87 79 -13 4
-29 4 -37 1 -10 -4 -17 2 -22 16 -11 40 -59 132 -72 140 -7 5 -10 12 -7 18 4
5 -1 12 -9 15 -9 3 -16 10 -16 16 0 5 -11 19 -25 32 -14 13 -25 27 -25 32 0 4
-22 30 -50 56 -27 26 -50 52 -50 57 0 6 28 39 63 75 34 37 61 66 59 66 -2 0 6
12 17 26 12 15 21 35 21 45 0 11 4 19 8 19 14 0 6 74 -13 113 -10 22 -29 44
-42 50 -12 5 -23 13 -23 17 0 8 -9 10 -97 14 -40 1 -73 -1 -73 -6 0 -4 -10 -6
-22 -4 -13 2 -27 0 -33 -4 -5 -5 -31 -11 -56 -15 l-46 -7 -11 92 c-6 51 -16
98 -22 105 -6 7 -10 17 -9 21 1 5 -3 22 -9 37 -7 16 -12 34 -12 40 0 22 -49
85 -77 99 -37 18 -100 16 -143 -4 -49 -24 -201 -35 -282 -22 -34 5 -38 10 -38
35 0 15 3 30 8 33 4 2 7 35 6 73 l-1 68 -56 1 c-31 0 -57 -3 -57 -8 0 -4 -6
-8 -12 -8 -7 0 -28 -14 -47 -30 -33 -30 -34 -30 -51 -10 -10 11 -21 20 -26 20
-5 0 -25 15 -46 33 -53 47 -126 69 -248 74 -58 3 -108 2 -111 -1z m206 -289
c11 -3 22 -6 25 -7 3 -1 8 -2 13 -1 4 0 7 -3 7 -9 0 -5 7 -10 16 -10 11 0 14
-5 9 -17 -4 -10 -8 -24 -8 -30 -1 -26 -137 -51 -163 -31 -7 5 -16 8 -20 7 -15
-4 -99 24 -106 36 -4 5 -8 6 -8 2 0 -5 -12 0 -27 11 -16 10 -36 22 -45 25 -10
4 -18 11 -18 17 0 6 4 9 8 6 4 -2 14 -1 22 4 15 9 262 7 295 -3z m-617 -109
c7 -7 12 -9 12 -5 0 4 40 -20 90 -53 49 -33 92 -60 95 -60 3 0 14 -9 25 -20
11 -11 27 -20 35 -20 8 0 15 -4 15 -9 0 -5 11 -12 25 -15 13 -3 37 -11 52 -18
31 -13 36 -14 78 -24 32 -8 160 -10 185 -2 75 21 158 81 195 140 10 16 22 25
31 21 16 -6 19 -39 4 -48 -7 -4 -7 -12 0 -25 5 -10 10 -29 10 -42 0 -26 41
-103 55 -104 6 0 28 -9 50 -19 43 -19 93 -26 101 -14 2 4 22 10 45 14 22 4 43
13 46 21 3 8 11 14 18 14 7 0 30 21 51 48 21 26 43 50 49 54 5 4 6 8 2 8 -5 0
-2 7 6 15 17 16 72 11 84 -8 5 -9 11 -66 14 -144 1 -13 5 -23 9 -23 4 0 10
-10 14 -23 3 -13 21 -43 40 -68 20 -25 37 -54 39 -64 6 -32 38 -99 51 -107 6
-4 7 -8 3 -8 -8 0 -6 -2 41 -60 25 -30 28 -39 19 -60 -29 -72 -31 -178 -3
-250 24 -64 142 -191 160 -173 3 4 6 0 6 -7 0 -7 3 -10 7 -7 3 4 12 2 19 -4 7
-6 40 -14 74 -19 34 -5 65 -12 69 -16 3 -3 -7 -16 -23 -28 -45 -34 -141 -126
-130 -126 5 0 4 -4 -2 -8 -6 -4 -23 -29 -37 -55 -20 -35 -27 -62 -27 -102 0
-29 5 -57 10 -60 6 -4 8 -10 5 -15 -10 -16 134 -140 164 -140 6 0 11 -4 11
-10 0 -5 4 -10 9 -10 19 0 80 -45 76 -57 -2 -6 2 -14 9 -16 16 -6 27 -55 15
-63 -5 -3 -9 -16 -9 -30 0 -13 -5 -24 -11 -24 -5 0 -8 -4 -4 -9 3 -5 1 -12 -5
-16 -6 -4 -8 -11 -5 -16 4 -5 1 -9 -5 -9 -6 0 -9 -4 -6 -9 3 -5 -1 -14 -9 -21
-8 -7 -15 -19 -15 -27 0 -7 -10 -28 -22 -46 -13 -18 -24 -34 -26 -37 -1 -2
-13 -5 -25 -5 -33 -2 -107 -27 -107 -37 0 -4 -5 -8 -11 -8 -16 0 -89 -81 -89
-99 0 -5 -5 -22 -12 -38 -6 -15 -10 -33 -9 -39 1 -7 -5 -14 -14 -18 -8 -3 -15
-12 -15 -21 0 -8 -5 -15 -11 -15 -5 0 -8 -4 -5 -8 3 -5 -2 -21 -9 -36 -8 -16
-13 -32 -10 -36 3 -5 1 -11 -4 -14 -5 -3 -12 -35 -15 -70 -7 -57 -10 -63 -27
-59 -10 3 -19 9 -19 14 0 5 -7 9 -15 9 -8 0 -15 4 -15 8 0 8 -51 29 -87 37
-10 2 -26 6 -35 10 -11 4 -18 3 -18 -4 0 -6 -10 -9 -22 -7 -13 2 -39 -6 -58
-17 -54 -33 -284 -270 -273 -281 4 -3 1 -6 -6 -6 -12 0 -38 -57 -33 -72 1 -5
-2 -8 -8 -8 -5 0 -8 -10 -6 -22 2 -13 -1 -29 -6 -35 -6 -7 -8 -26 -6 -42 4
-26 1 -29 -39 -38 -40 -10 -43 -9 -65 20 -13 17 -22 34 -20 39 1 4 -2 8 -8 8
-6 0 -9 3 -8 8 3 11 -33 76 -48 85 -8 4 -14 15 -14 22 0 8 -3 15 -8 15 -4 0
-18 10 -32 23 -26 24 -59 41 -72 39 -5 -1 -8 2 -8 8 0 12 -103 14 -114 3 -4
-5 -11 -9 -14 -9 -27 -6 -52 -18 -52 -25 0 -5 -6 -9 -12 -9 -7 -1 -24 -14 -38
-30 -13 -17 -30 -30 -37 -30 -7 0 -13 -3 -13 -7 0 -10 -64 -39 -105 -49 -78
-18 -199 -1 -230 32 -12 13 -27 24 -34 24 -6 0 -11 4 -11 8 0 4 -24 21 -54 37
-30 16 -62 42 -71 57 -9 15 -20 28 -26 28 -5 0 -9 6 -9 13 0 15 -73 87 -89 87
-6 0 -11 5 -11 11 0 5 -5 7 -10 4 -5 -3 -10 -2 -10 3 0 5 -6 9 -12 10 -7 1
-40 6 -73 11 -64 11 -145 4 -145 -11 0 -5 -5 -6 -10 -3 -6 4 -17 1 -25 -5 -8
-7 -15 -9 -15 -4 0 5 -4 4 -8 -1 -4 -6 -19 -16 -35 -23 -24 -10 -30 -9 -47 8
-18 18 -20 34 -20 130 0 64 -4 110 -10 110 -5 0 -7 6 -4 13 7 19 -64 97 -81
90 -8 -3 -15 0 -15 6 0 16 -132 14 -149 -1 -11 -11 -13 -10 -9 0 2 8 17 21 33
30 17 9 31 20 33 25 2 4 8 7 14 7 16 0 77 65 89 96 22 56 7 167 -28 202 -24
24 -108 55 -153 56 -25 1 -45 6 -45 11 -1 6 -11 26 -23 45 -12 19 -22 38 -22
42 0 4 -14 30 -30 58 -35 60 -37 71 -11 94 11 10 22 30 25 45 13 62 14 81 5
81 -5 0 -9 9 -9 19 0 15 -10 21 -42 26 -47 8 -58 18 -58 55 0 19 9 29 40 44
22 11 49 26 61 35 29 21 89 84 89 93 0 4 5 19 11 35 6 15 10 30 11 33 0 3 4
10 8 16 6 6 2 17 -10 27 -11 9 -20 15 -20 12 0 -3 -18 6 -40 20 -22 14 -43 25
-47 25 -13 0 -69 49 -58 51 6 0 33 2 60 4 28 1 51 3 53 5 1 1 5 3 10 4 30 8
90 41 118 66 19 16 32 30 29 30 -4 0 3 12 14 26 12 15 21 35 21 45 0 11 4 19
8 19 15 0 6 124 -13 173 -10 26 -21 47 -25 47 -18 0 -3 33 29 64 36 34 75 60
141 93 19 10 38 22 41 26 3 5 9 9 12 8 9 0 77 26 108 43 18 9 32 10 43 4 10
-5 25 -6 34 -2 9 4 25 8 35 9 9 2 19 3 22 4 3 0 8 1 11 0 4 0 10 3 13 8 3 4
15 13 26 19 29 16 73 84 67 106 -4 16 -1 17 19 8 13 -6 32 -13 42 -16 9 -4 17
-10 17 -14 0 -4 16 -7 35 -6 19 0 35 5 35 9 0 5 4 6 9 2 13 -7 95 75 100 100
3 11 5 52 5 90 0 39 5 73 11 77 15 11 40 9 53 -4z m1792 -453 c0 -11 -5 -27
-10 -35 -8 -13 -14 -10 -39 17 -16 17 -27 33 -25 35 2 2 19 4 39 4 29 0 35 -4
35 -21z m-2860 -344 c0 -12 -50 -61 -63 -61 -5 0 5 16 24 35 37 38 39 39 39
26z m-279 -1038 c1 -5 8 -17 15 -28 8 -11 14 -25 14 -32 0 -14 -35 -12 -49 3
-11 11 -30 122 -22 129 5 5 40 -55 42 -72z m1967 -1250 l27 -28 -35 -3 c-47
-5 -120 7 -120 19 0 6 4 8 9 4 6 -3 13 1 18 8 20 34 67 34 101 0z"/>
</g>
</svg>
