<?xml version="1.0" encoding="UTF-8"?>
<svg xmlns="http://www.w3.org/2000/svg" viewBox="0 0 292.65 283.62">
  <defs>
    <style>
      .cls-1, .cls-2 {
        fill: none;
      }

      .cls-2 {
        stroke: #a59b75;
        stroke-miterlimit: 10;
        stroke-width: 5px;
      }
    </style>
  </defs>
  <g id="Layer_3" data-name="Layer 3">
    <rect class="cls-1" x="-149.08" y="-451.1" width="611.69" height="859.78"/>
  </g>
  <g id="Layer_4" data-name="Layer 4">
    <path class="cls-2" d="m122.74,8.66c5.12,2.07,9.45,5.66,13.89,8.95,5.7,4.22,11.89,8.09,18.82,9.59,6.93,1.5,14.78.3,19.93-4.58,3.65-3.45,5.57-8.29,8.34-12.48s7.15-8.06,12.15-7.6c-.52,7.61-1.04,15.21-1.56,22.82-.13,1.97-.25,4.04.58,5.84,2.11,4.54,9.02,4.44,13.03,1.43s6.24-7.77,9.46-11.61,8.61-6.89,13.12-4.71c5.28,2.54,5.45,9.83,5.24,15.68-.21,5.85,1.28,13.37,7.05,14.42,1.8.33,3.65-.12,5.41-.62,7.07-2,16.35-4.12,20.36,2.03,2.85,4.37.75,10.36-2.64,14.32s-7.94,6.87-10.98,11.1c-4.36,6.06-4.98,14.6-1.54,21.23,3.44,6.63,10.78,11.03,18.25,10.95,3.54-.04,7.15-.99,10.56-.06,3.41.93,6.34,5,4.41,7.97-.75,1.16-2.04,1.83-3.25,2.51-6.95,3.86-13.09,9.18-17.89,15.52-2.13,2.81-4.08,6.18-3.53,9.66.8,5.07,6.22,7.74,10.64,10.34,9.06,5.33,16.63,14.3,17.48,24.77s-6.87,21.73-17.36,22.32c-2.09.12-4.22-.17-6.28.21-4.72.86-8.28,5.12-9.59,9.73s-.78,9.55.06,14.27c.71,4.03,1.64,8.13,1.06,12.18s-3.1,8.14-7.05,9.2c-9.9,2.65-18.34-14.27-27.55-9.78-1.54.75-2.75,2.03-3.92,3.28-4.15,4.44-8.3,8.87-12.46,13.31-1.85,1.98-3.73,3.99-4.93,6.41-1.97,3.96-1.95,8.56-2.74,12.91-.79,4.35-2.9,9.02-7.07,10.48-7.15,2.51-13.17-5.7-16.21-12.63s-8.53-15.32-15.86-13.4c-3.2.84-5.5,3.52-7.95,5.74-13.85,12.59-38.26,10.66-49.96-3.95-3.73-4.66-6.42-10.45-11.52-13.55-6.43-3.9-14.94-2.26-21.41,1.57-2.95,1.74-6.37,3.99-9.51,2.61-2.24-.99-3.35-3.49-4.07-5.84-1.73-5.69-2.29-11.73-1.65-17.64.2-1.8.5-3.69-.15-5.39-1.82-4.73-8.67-4.11-13.44-2.4s-11.25,3.12-13.92-1.19c-1.66-2.68-.63-6.35,1.51-8.67s5.14-3.6,8.02-4.88c3.74-1.67,7.61-3.58,9.96-6.93s2.57-8.57-.62-11.14c-2.12-1.71-5.07-1.84-7.79-1.89-8.27-.16-16.55-.32-24.82-.48-1.95-.04-4.04-.12-5.6-1.3-1.62-1.22-2.25-3.32-2.79-5.27-1.22-4.43-2.45-9.01-1.77-13.55.68-4.54,3.81-9.05,8.34-9.82,2.64-.45,5.34.4,8.01.23s5.68-2.1,5.35-4.76c-5.15-1.37-10.66-2.99-13.95-7.17s-2.64-11.74,2.42-13.41c1.82-.61,3.81-.34,5.73-.44,5.75-.3,11.16-4.22,13.22-9.6-7.48-4.35-14.97-8.71-22.45-13.06-2.11-1.23-4.32-2.55-5.53-4.68s-.93-5.3,1.22-6.47c1.24-.68,2.75-.54,4.16-.35,3.88.52,7.73,1.27,11.52,2.25,3.14.81,6.31,1.78,9.55,1.7,5.75-.15,11.25-3.96,13.41-9.29s.87-11.89-3.16-16c-2.03-2.07-4.67-3.57-6.23-6.02-3.68-5.81.46-13.28,4.57-18.79,4.55-6.12,10.44-12.78,18.06-12.44,5.69.26,10.32,4.41,15.46,6.86,5.14,2.45,12.86,2.22,14.8-3.13,1.05-2.9-.12-6.07-.52-9.13s.64-6.95,3.67-7.54c3.4-.66,5.71,3.22,7.26,6.32s5.08,6.47,7.94,4.5c5.67-3.91.75-14.17,2.22-18.79,1.87-5.86,9.48-5,14.98-2.78Z"/>
  </g>
</svg>