<?xml version="1.0" encoding="UTF-8"?>
<svg xmlns="http://www.w3.org/2000/svg" viewBox="0 0 259.29 267.36">
  <defs>
    <style>
      .cls-1, .cls-2 {
        fill: none;
      }

      .cls-2 {
        stroke: #33658c;
        stroke-miterlimit: 10;
        stroke-width: 5px;
      }
    </style>
  </defs>
  <g id="Layer_3" data-name="Layer 3">
    <rect class="cls-1" x="-168.76" y="-113.59" width="611.69" height="859.78"/>
  </g>
  <g id="Layer_2" data-name="Layer 2">
    <path class="cls-2" d="m27.89,60.95c4.22-6.8,10.06-8.38,16.95-12.45,4.75-2.8,10.35-3.99,14.93-7.06,4.59-3.08,7.77-7.78,11.4-11.95C86.93,11.37,111.76,3.16,135.77,2.53c5.24-.14,10.69.09,15.37,2.46,7.64,3.87,11.89,12.74,19.7,16.25,6.19,2.78,13.31,1.66,20.08,1.2s14.42.2,18.88,5.31c5.07,5.82,3.77,14.6,5.3,22.16,3.98,19.72,27.06,30.3,33.51,49.36,4.62,13.66-.23,29.07,3.96,42.86,1.29,4.25,3.42,8.27,4.04,12.66.91,6.47-1.55,12.91-4.24,18.87-3.01,6.68-6.47,13.37-11.91,18.28-5.22,4.71-12.21,7.74-15.77,13.81-5.33,9.06-1.63,22.65-9.73,29.35-6.07,5.02-15.59,3.1-22.18,7.42-3.02,1.98-5.09,5.07-7.51,7.75-8.2,9.08-20.61,13.46-32.81,14.37s-24.4-1.29-36.43-3.5c-4.84-.89-9.9-1.88-13.75-4.94-2.98-2.37-4.96-5.78-7.76-8.37-9.1-8.44-23.49-6.09-35.39-9.61-7.41-2.19-13.89-6.72-19.95-11.51-9.31-7.36-18.55-16.55-19.96-28.33-.87-7.25,1.39-14.66.14-21.86-.75-4.36-2.76-8.39-4.73-12.35-2.32-4.65-4.64-9.3-6.96-13.95-2.47-4.94-4.99-10.09-5.15-15.61-.27-9.5,6.47-18.26,5.71-27.72-.52-6.45-4.51-12.82-2.61-19,1.16-3.78,4.3-6.56,7.31-9.14,7.04-6.03,11.55-10.95,14.97-17.81"/>
  </g>
</svg>